<svg xmlns="http://www.w3.org/2000/svg" viewBox="0 0 192.01 66.25"><title>Jack Daniels logo</title><path d="M585.32,534.86c.21-.31.42-.45.55-.35.35.21.24.55.07.8-1,1.6-1.53,4.54,1.8,6.55,1.46.9,2.81.42,4.2-1.87,1.46-2.46-1.32-15.57,2.29-21.54,1.08-1.8,5.44-4.13,8.43-2.32,2.08,1.25,3,4,4.06,4.58s.73,0,1.21.28c.17.1,0,.49-.21.83l-2.81,3.81c-.35.42-.62.83-.87.66s.35-1.46.52-2.15c.42-1.63-.14-4.75-1.87-5.79a2.42,2.42,0,0,0-3.33,1c-2.6,4.3,1.63,14.36-2.88,21.88-1.46,2.43-5.1,5.34-9.05,3-2.71-1.63-3.09-3.64-3.78-4.06s-1.84.17-2.15,0,.17-.59.24-.66l3.57-4.68m-14-23.24,2.67-5.76c1.11-2.43,1.28-2.77,2.32-2.29,2.25,1,2.81,4,2.71,5.06s.52,1.7.8.59l1.39-4.89-11.93-5.41c-.35-.17-.66-.14-.76.1-.35.73,1.56.76.07,4.06l-9.36,20.5c-1.49,3.29-2.77,2.36-3.12,3.09-.1.24.07.49.45.66L568,532l2.77-3.71a.48.48,0,0,0-.14-.73c-1,.52-4.06,1.91-5.31,1.32s-1.46-.94-1-1.8l4.89-10.72a1.37,1.37,0,0,1,2-.69c1.56.73-.42,4.51.69,5,.28.14.55-.17.8-.69l3.54-7.73c.21-.42.24-.94,0-1.08-.94-.42-2.22,3.33-4,2.53a1.5,1.5,0,0,1-.87-2.15M549.7,495.46l-4,14.12c-.21.69-.66-.28-1-1.73l-3-15.5c-.21-1.14-.24-1.35-.66-1.46l-4-1c-.45-.1-.73-.1-.8.14-.14.49,1.46,1.21,1.14,2.67l-5.27,25.25c-.49,2-.87,1.32-1,1.94,0,.21.21.31.49.35l3.68.59c.31.07.45,0,.52-.28.14-.55-1.46.07-.62-3.81l2.57-12.49c.1-.45.42-.38.49.07l3,17.72a.42.42,0,0,0,.38.42l3.16,1c.17,0,.38.07.42-.07s-.28,0-.07-.8l7.28-25.84c.69-2.6,1.49-1.73,1.6-2.15s-.14-.38-.66-.55l-3-1c-.62-.21-.94-.24-1,0-.07.49.94.31.38,2.36M511.27,518.9l5.31.07c.17,0,.31,0,.35-.21.07-.62-1.94-.17-1.18-2.6l1.7-5.17,5.34.52.45,5.13c.24,2.67-1,1.94-1,2.6,0,.31.17.42.62.42l7.11.49c.35,0,.66,0,.69-.31.07-.59-.83.1-1.14-2.74l-2.25-26.15c-.14-1.73-.17-2-.55-2l-6-.59c-.14,0-.31,0-.35.14,0,.42.9.8.83,1.7a13.83,13.83,0,0,1-.76,2.67l-7,21.81c-1.32,4.09-2.43,3.43-2.5,3.92,0,.28.07.35.35.35m6.87-10.16,2.67-8.25c.55-1.77.9-1.46,1,.1l.73,8.6-4.44-.45m-17.79-29.86-5.24.21c-1.35,0-2.15.17-2.12.55,0,.69,1.25-.07,1.39,3.09L495.73,517c.07,1.8-1.35,1.7-1.32,2.39,0,.14.24.24.83.21l7-.28c6.45-.24,12-8.43,11.38-24-.49-11.1-6.52-16.68-13.28-16.44m6.17,11.41.59,15.19c.14,3.23-1,11-3.61,11.1-.94,0-1.42.17-1.46-.66l-1.28-34c0-.55.28-.66,1.18-.69,3.29-.14,4.44,5.06,4.58,9.09m48.73,32.15,7.42-21.09c1.21-3.43,2.6-2.15,2.84-2.91.1-.24-.1-.49-.49-.59l-7.77-2.71c-.38-.14-.69-.1-.76.17-.28.76,1.63.62.42,4.06l-7.49,21.26c-1.21,3.43-2.6,2.15-2.84,2.91-.1.24.14.49.49.62l7.8,2.53c.38.14.66.1.76-.17.28-.8-1.6-.66-.38-4.09M578,532.78l11.2-19.59c1.8-3.16,2.91-1.63,3.33-2.32.14-.24,0-.49-.38-.69L585,506.11c-.35-.21-.66-.21-.8,0-.38.69,1.49.9-.31,4.06l-11.27,19.73c-1.6,2.81-3.16,1.49-3.57,2.22-.14.24,0,.49.38.69l11.1,6.1,3.78-3.61c.17-.17.31-.49.07-.62-.45-.24-4.4,1.73-6.24.69-1-.59-1.11-.94-.14-2.64m23.58-26.64a2.77,2.77,0,1,0-5.51.45,2.83,2.83,0,0,0,1.08,2c.1,1.11-1.66.55-1.6,1.6,0,.28.24.38.94.31,1.63-.1,5.38-1.42,5.1-4.34M472.53,524.42l7.77-2.29c.17,0,.17-.17.14-.31-.14-.49-1.39-.07-1.6-1l-2.91-12.49a.91.91,0,0,1,.49-1c.24-.07.52.42.69.83l5.69,12.94c.24.49.42.66,1.14.55l6.83-1.08c.28,0,.35-.14.28-.38-.14-.66-1.7,0-2.43-1.49l-5.76-13.25c-.21-.45-.42-.52-.69-.45-.87.21-4.2,1.28-4.61-.45-.14-.55.66-2.25,1.6-5l1.7-4.4c1.49-4.34,2.71-4,2.6-4.4,0-.17-.1-.21-.28-.17L478,491.85c-.24.07-.35.07-.31.28.1.42.8.24,1,1a3.73,3.73,0,0,1-.17,1.8l-2.88,7.66a2.05,2.05,0,0,1-.59.87c-.17,0-.28-.17-.35-.35l-1.87-8.15c-.35-1.53,1.08-1.42.94-2a.21.21,0,0,0-.28-.17l-7.91,1.8c-.31.07-.38.14-.35.35.14.55,1.08,0,1.49,1.77l5.86,25.18c.38,1.66-1,1.77-.8,2.43.1.28.28.28.73.17m-10.79-5.27-4.82-14.84c-.49-1.46-1.7-5,1-5.86s4.82,3.05,5.2,2.91c.1,0,.24-.07.14-.31l-1.73-5.38c-.07-.17-.17-.35-.31-.31-.35.1-.38,1.08-1,1.28-1,.35-3.33.66-4.47,1-5.27,1.73-4.54,10.51-2.81,15.81,3.4,10.44,9.43,14.95,14.25,13.39,3-1,4.13-4.61,3.29-7.21-.55-1.7-1.46-3.47-3.33-3.75-.35-.1-.66.07-.24.66a9.51,9.51,0,0,1,1.39,2.71c.31,1,.59,5.44-1.42,6.1-2.46.8-4.47-4.16-5.17-6.21m-16.33,13.39-1.25-4.89,4.54-2.39,2.84,3.5a2.07,2.07,0,0,1-.1,2.91c-.49.35-.1.9.35.66,2.91-1.46,5.38-2.95,8.39-4.47.45-.24.14-.8-.28-.76-.87.07-1.14-.14-2-1.25l-17.58-21.71c-1.18.59-3.43,1.63-5.27,2.57-.69.35-.87,1.42.31,1.18.55-.07,1,.42,1.49,2.12l6.31,24.28a3,3,0,0,1-.62,2.81c-.17.17,0,.62.21.52,1-.52,4.51-2.77,5-3,.28-.14-.07-.49-.35-.42-1.32.35-1.63-.31-2-1.63m-4.06-16.16c.17-.1.66.55.76.73l5.06,6.28-3.68,1.77-2-7.77c-.1-.45-.35-.94-.14-1M419,509.44,433.2,532c1.49,2.36,4.4,7.32.73,9.64-3.09,1.94-5.79,0-7.21-2.25-1.32-2.12-1.46-5.34.07-6.28.62-.42.87-.21,1.32-.52-.31-.49-.35-1-.62-1.42-1.21-2-3.26-2-5-.83-2.71,1.7-2.81,6.59-.73,9.88a9.75,9.75,0,0,0,13.56,3.12c7.39-4.61,5.1-12.35,2.32-16.79l-13-20.7c-1.08-1.7-1.18-2-.66-3.09.1-.28.07-.69-.38-.42-2.64,1.66-4.89,3.4-7.39,4.92-.31.21-.31.76.17.66,1.11-.28,1.87.31,2.6,1.46" transform="translate(-415.99 -478.87)"/></svg>